<?xml version="1.0" encoding="UTF-8"?>
<svg width="107px" height="56px" viewBox="0 0 107 56" version="1.1" xmlns="http://www.w3.org/2000/svg" xmlns:xlink="http://www.w3.org/1999/xlink">
    <!-- Generator: sketchtool 64 (101010) - https://sketch.com -->
    <title>B38F0943-3FCF-48F8-9D5D-2FE61B58F2EB@1x</title>
    <desc>Created with sketchtool.</desc>
    <defs>
        <polygon id="path-1" points="0.0801908416 0.0502983288 105.305053 0.0502983288 105.305053 23.7815993 0.0801908416 23.7815993"></polygon>
    </defs>
    <g id="Screens" stroke="none" stroke-width="1" fill="none" fill-rule="evenodd">
        <g id="Home-page" transform="translate(-40.000000, -15.000000)">
            <g id="Header" transform="translate(0.000000, 0.000000)">
                <g id="Logo/vivetic" transform="translate(40.000000, 15.000000)">
                    <g id="Group-21">
                        <g id="Group-20">
                            <g id="Group-3" transform="translate(0.982456, 9.324000)">
                                <mask id="mask-2" fill="white">
                                    <use xlink:href="#path-1"></use>
                                </mask>
                                <g id="Clip-2"></g>
                                <path d="M25.8216491,4.56517895 C24.5380702,4.55830175 23.2530175,4.55682807 21.9689474,4.56517895 C21.304807,4.56861754 21.1485965,4.73268772 21.1485965,5.39535439 L21.1485965,22.4876351 C21.1485965,23.1331088 21.3293684,23.3128982 21.9777895,23.3143719 C23.2353333,23.3178105 24.492386,23.3158456 25.7499298,23.3143719 C26.4980702,23.3143719 26.6415088,23.1738807 26.6415088,22.4370386 L26.6415088,13.9525474 L26.6415088,5.38552982 C26.6415088,4.71402105 26.4941404,4.56665263 25.8216491,4.56517895 M85.812386,4.56370526 C84.5690877,4.56026667 83.3282456,4.56164256 82.0834737,4.56370526 C81.2729474,4.56517895 81.1584912,4.68012632 81.1584912,5.48672281 C81.1565263,8.28721404 81.1584912,11.0896702 81.1584912,13.8896702 C81.1584912,16.7328982 81.1565263,19.5736702 81.1584912,22.416407 C81.1584912,23.1704421 81.3073333,23.3143719 82.0746316,23.3143719 C83.3174386,23.3158456 84.5607368,23.3158456 85.8055088,23.3143719 C86.4784912,23.3128982 86.6558246,23.1419509 86.6558246,22.4670035 L86.6558246,5.41451228 C86.6558246,4.72237193 86.5020702,4.56665263 85.812386,4.56370526 M77.640807,18.7768982 C77.3411579,18.8063719 77.0405263,18.8564772 76.7428421,18.8564772 C76.072807,18.8550035 75.4017895,18.8451789 74.8432632,18.3745825 C74.2518246,17.8754947 74.0469825,17.2059509 74.0420702,16.4789333 C74.0219298,14.2787228 74.0317544,12.0790035 74.0302807,9.87830175 C74.0302807,9.81296842 74.0420702,9.74714386 74.0538596,9.63023158 C75.1193333,9.63023158 76.1405965,9.63317895 77.1657895,9.62875789 C77.6963158,9.6253193 77.8790526,9.44061754 77.8824912,8.91009123 C77.8878947,8.05044211 77.8844561,7.18833684 77.8844561,6.32721404 C77.8844561,4.95767018 77.8844561,4.95767018 76.4962456,4.95767018 L73.9929474,4.95767018 C73.9777193,4.81914386 73.9610175,4.72581053 73.9507018,4.63444211 C73.8205263,3.35774035 73.6682456,2.08251228 73.5734386,0.803354386 C73.5326667,0.259564912 73.3401053,0.0493192982 72.6941404,0.0502983288 C71.6286667,0.0542315789 70.5636842,0.0502983288 69.4982105,0.0522666667 C68.6341404,0.0532491228 68.5309825,0.156407018 68.5309825,1.01556491 C68.5309825,6.09928421 68.5270526,11.1825123 68.5344211,16.2662316 C68.5358947,16.9608281 68.5442456,17.6613193 68.635614,18.3490386 C68.9234737,20.5561263 70.0321754,22.1914246 72.1125263,23.0893895 C73.934,23.8763368 75.8296491,23.8493193 77.7439649,23.5594947 C78.0971579,23.5054596 78.2700702,23.2568982 78.2730175,22.9253193 C78.284807,21.7095298 78.2916842,20.495214 78.2730175,19.2794246 C78.2661404,18.8800561 78.0396842,18.7380912 77.640807,18.7768982 M105.156947,20.9554947 C104.514421,19.9730386 103.854702,19.0018807 103.19007,18.0346526 C103.007333,17.7674246 102.746982,17.6814596 102.437509,17.8317754 C102.278842,17.9079158 102.118211,17.9820912 101.963965,18.071986 C100.856737,18.7091088 99.6556842,18.9547228 98.3853684,18.8952842 C97.0005965,18.8314246 95.8270526,17.8455298 95.7764561,16.5413193 C95.7086667,14.7827228 95.7101404,13.0172491 95.7813684,11.2606175 C95.8187018,10.3675649 96.3443158,9.67542456 97.1744912,9.28195088 C98.3043158,8.74602105 99.4650877,8.87275789 100.609649,9.19745965 C101.077789,9.33058246 101.515965,9.57079298 101.968877,9.75844211 C102.285719,9.88910877 102.578,9.90728421 102.796105,9.57226667 C103.426842,8.61535439 104.066421,7.66335439 104.688316,6.7010386 C104.969298,6.26630175 104.89807,5.97058246 104.454982,5.70826667 C101.568526,3.98847719 98.4806667,3.58124912 95.2773684,4.5416 C92.3977895,5.40223158 90.6775088,7.39121404 90.2668421,10.3911439 C90.1076842,11.5514246 90.1283158,12.7333193 90.0654386,13.9682667 C90.1297895,15.1378807 90.1076842,16.3772491 90.2904211,17.5881263 C90.684386,20.2196351 92.1300702,22.0985825 94.6299298,23.088407 C96.5560351,23.8503018 98.5666316,23.9131789 100.595895,23.6174596 C102.160456,23.3924772 103.584035,22.7936702 104.889228,21.9074947 C105.332807,21.6083368 105.420737,21.3543719 105.156947,20.9554947 M18.1928772,4.56665263 C16.7437544,4.55338947 15.2921754,4.55486316 13.8464912,4.56861754 C13.3174386,4.57205614 13.1111228,4.74938947 12.9691579,5.25879298 C11.9459298,8.86391579 10.9281053,12.4695298 9.91126316,16.0746526 C9.76094737,16.6037053 9.62536842,17.1366877 9.48340351,17.6681965 C9.44803509,17.662793 9.41070175,17.6578807 9.37680702,17.6524772 C9.34684211,17.5620912 9.31442105,17.4751439 9.28936842,17.3837754 C8.21357895,13.5114246 7.13631579,9.64005614 6.06052632,5.76770526 C5.72747368,4.56370526 5.7294386,4.56370526 4.48957895,4.56370526 C3.24824561,4.56370526 2.00396491,4.55486316 0.760666667,4.56665263 C0.118140351,4.57205614 -0.0307017544,4.75970526 0.153508772,5.28728421 C2.15231579,11.0842667 4.15505263,16.8783018 6.15877193,22.6718456 C6.32922807,23.1640561 6.55273684,23.3128982 7.07884211,23.3143719 C8.63652632,23.3158456 10.1942105,23.3178105 11.7509123,23.3143719 C12.2853684,23.3128982 12.5241053,23.1488281 12.7019298,22.6448281 C14.7208772,16.8866526 16.7403158,11.1265123 18.7543509,5.36342456 C18.9567368,4.78524912 18.8147719,4.57402105 18.1928772,4.56665263 M47.0633333,4.56861754 C45.6009474,4.55486316 44.1375789,4.55486316 42.6781404,4.56861754 C42.1392632,4.57205614 41.9530877,4.7376 41.8042456,5.25535439 C40.8134386,8.74061754 39.8255789,12.2263719 38.8396842,15.7116351 C38.6554737,16.3605474 38.4879649,17.0114246 38.2777193,17.7851088 C38.1922456,17.5714246 38.1465614,17.483986 38.1190526,17.387214 C36.9946316,13.3340912 35.8682456,9.2770386 34.7438246,5.22145965 C34.6013684,4.71058246 34.4427018,4.57205614 33.8998947,4.56665263 C32.4370175,4.55486316 30.975614,4.55486316 29.515193,4.56861754 C28.9448772,4.57402105 28.8112632,4.78524912 28.9989123,5.32952982 C30.9898596,11.0965474 32.9847368,16.8630737 34.9805965,22.6296 C35.1731579,23.1866526 35.3627719,23.3128982 35.944386,23.3143719 C37.4612982,23.3158456 38.9782105,23.3158456 40.4931579,23.3143719 C41.146,23.3143719 41.3444561,23.1719158 41.5674737,22.534793 C42.1829825,20.7860211 42.7970175,19.039214 43.4071228,17.2909333 C44.7938596,13.3321263 46.1771579,9.37135439 47.5604561,5.40910877 C47.7721754,4.80047719 47.6469123,4.57402105 47.0633333,4.56861754 M60.0376491,12.2327579 L54.5211579,12.2327579 C54.4995439,11.0945825 54.4032632,9.94265263 55.4633333,9.14637193 C56.3426316,8.48517895 57.9931579,8.4616 58.9672632,9.07023158 C59.8603158,9.63023158 60.1918947,10.6736 60.0376491,12.2327579 M65.226,10.2118456 C64.9710526,7.76307368 63.7144912,5.89296842 61.4194737,4.88300351 C58.8690175,3.75858246 56.2325965,3.76349474 53.6335088,4.68012632 C50.8718246,5.65619649 49.2807368,7.69233684 49.0606667,10.5954947 C48.8931579,12.8197754 48.9270526,15.0754947 49.0557544,17.3081263 C49.1824912,19.543214 50.3309825,21.2703719 52.2502105,22.4537404 C53.6845965,23.3345123 55.2619298,23.6818105 56.9242456,23.755986 C59.7365263,23.8827228 62.2987719,23.1758456 64.5952632,21.5420211 C65.1297193,21.1623018 65.1719649,20.8877053 64.771614,20.3498105 C64.2234035,19.6159158 63.6737193,18.8854596 63.1240351,18.1550035 C62.7639649,17.6745825 62.6303509,17.6338105 62.0978596,17.9305123 C60.7651579,18.6658807 59.3715439,19.1664421 57.8236842,19.1713544 C57.0932281,19.1728281 56.3745614,19.1104421 55.7320351,18.7346526 C54.6159649,18.0818105 54.4435439,17.0237053 54.5314737,15.7990737 L55.055614,15.7990737 C58.0201754,15.7990737 60.9867018,15.8010386 63.9532281,15.7990737 C64.2248772,15.7990737 64.4989825,15.7921965 64.771614,15.7907228 C65.1587018,15.7853193 65.3532281,15.5824421 65.3479341,15.2022316 C65.3212982,13.5384421 65.3989123,11.8623719 65.226,10.2118456" id="Fill-1" fill="#1D758A" mask="url(#mask-2)"></path>
                            </g>
                            <path d="M11.6633754,35.5538105 C11.3873053,35.5523368 10.8381123,35.5449684 10.8381123,35.5449684 C9.67439298,35.5434947 8.51116491,35.5420211 7.34744561,35.5449684 C6.8134807,35.5469333 6.57474386,35.7114947 6.39888421,36.2135298 C4.37797193,41.9726877 2.10162105,49.4216702 0.0861122807,55.1832842 C-0.116764912,55.7619509 0.0271649123,55.9731789 0.649059649,55.9800561 C0.925129825,55.9815298 1.20021754,55.9780912 1.4777614,55.9800561 L1.47628772,55.988407 C2.63951579,55.9904697 3.80127018,55.9918456 4.96449825,55.988407 C5.49895439,55.9869333 5.73621754,55.8233544 5.91355088,55.3203368 C7.93446316,49.5606877 10.210814,42.1131789 12.2248491,36.3505825 C12.4277263,35.7719158 12.2877263,35.5606877 11.6633754,35.5538105" id="Fill-4" fill="#EF4D6E"></path>
                            <path d="M23.3842246,0.0110035088 C23.1071719,0.00854736842 22.5574877,0.000687719298 22.5574877,0.000687719298 C21.3937684,0.000687719298 20.2305404,-0.000785964912 19.0673123,0.000687719298 C18.5328561,0.00363508772 18.2941193,0.166722807 18.1182596,0.669740351 C16.0993123,6.4298807 16.7197333,4.62265263 14.7056982,10.3852491 C14.5028211,10.964407 14.6462596,11.1751439 15.2686456,11.1810386 C15.5442246,11.1834947 15.8202947,11.1800561 16.0958737,11.1810386 L16.0958737,11.1908632 C17.2576281,11.1918456 18.4208561,11.1928281 19.5845754,11.1908632 C20.1190316,11.188407 20.3558035,11.0243368 20.5346105,10.5213193 C22.5540491,4.7621614 21.9301895,6.56938947 23.9461895,0.806792982 C24.1471018,0.227635088 24.0071018,0.0168982456 23.3842246,0.0110035088" id="Fill-6" fill="#EF4D6E"></path>
                            <path d="M88.8579018,5.74481404 C88.5808491,5.74137544 88.0306737,5.73449825 88.0306737,5.73449825 C86.8674456,5.73400702 85.7037263,5.73302456 84.5404982,5.73449825 C84.0060421,5.73646316 83.7555158,5.89611228 83.5914456,6.40355088 L82.3083579,10.3854456 C82.1054807,10.9646035 82.2474456,11.1748491 82.8713053,11.1807439 C83.1468842,11.1836912 83.4229544,11.1797614 83.6980421,11.1807439 C83.6980421,11.1827088 83.6965684,11.1910596 83.6965684,11.1910596 C84.8597965,11.1919897 86.0235158,11.1925333 87.1872351,11.1910596 C87.7216912,11.1886035 87.9584632,11.0245333 88.1357965,10.5215158 L89.4193754,6.54060351 C89.6070246,5.95604211 89.4802877,5.74972632 88.8579018,5.74481404" id="Fill-8" fill="#1D758A"></path>
                            <path d="M31.1450386,47.7068912 L31.1450386,48.0959439 C31.1450386,49.4099789 31.1361965,50.7259789 31.1499509,52.0429614 C31.1553544,52.3067509 31.0654596,52.4747509 30.8576702,52.6250667 C29.6350035,53.5230316 28.2649684,53.9371368 26.7534596,53.9032421 C25.9954947,53.888014 25.2581614,53.7627509 24.5802667,53.4164351 C23.1797754,52.6997333 22.5490386,51.4864 22.5200561,49.9665404 C22.4846877,47.9760842 22.5102316,45.9836632 22.5151439,43.9917333 C22.5151439,43.7854175 22.5470737,43.5756632 22.584407,43.3713123 C22.8550737,41.9133474 23.6346526,40.8631018 25.0837754,40.4219789 C27.1061614,39.8054877 28.9885474,40.2505404 30.7663018,41.2840842 C31.4004772,41.6544702 31.3803368,41.6662596 31.8180211,41.0728561 C31.975214,40.8581895 31.9481965,40.7496281 31.7369684,40.6042246 C29.7784421,39.2729965 27.6342316,38.7306807 25.3008982,39.205207 C22.8177404,39.7111719 21.4481965,41.4953123 21.3548632,43.8311018 C21.2703719,45.9296281 21.2924772,48.0350316 21.3514246,50.1369965 C21.4005474,51.8268211 22.1044772,53.2184702 23.5722667,54.157207 C24.4348632,54.7083649 25.3966877,54.9372772 26.3978105,55.0026105 C28.576407,55.1445754 30.4956351,54.5153123 32.099986,53.0141193 C32.2237754,52.8967158 32.3102316,52.6791018 32.3102316,52.5066807 C32.3269333,50.6866807 32.3117053,48.8671719 32.3285064,47.0471719 C32.3323368,46.7008561 32.2203368,46.6026105 31.8892491,46.6060491 C30.4126175,46.6198035 28.9379509,46.6114526 27.4618105,46.6114526 C26.7966877,46.6114526 26.818793,46.6124351 26.7957053,47.2642947 C26.7819509,47.6224 26.9175298,47.6985404 27.2417404,47.6936281 C28.3985825,47.6779088 29.5539509,47.6872421 30.7103018,47.6887158 C30.8424421,47.6887158 30.9740912,47.6985404 31.1450386,47.7068912" id="Fill-10" fill="#1D758A"></path>
                            <path d="M40.4342596,47.2808982 L40.4342596,40.426793 C40.4681544,40.403214 40.4882947,40.3776702 40.5084351,40.3776702 C42.1997333,40.4179509 43.9077333,40.3256 45.5754526,40.5368281 C47.7299789,40.8104421 48.4972772,42.5086175 48.2840842,44.3605474 C48.0846456,46.1103018 47.107593,47.0947228 45.2556632,47.2519158 C43.6744,47.3894596 42.0710316,47.2808982 40.4342596,47.2808982 M45.2217684,48.3670035 C46.2415579,48.2412491 47.1444351,47.9946526 47.9426807,47.448407 C49.8997333,46.1088281 50.0348211,43.511214 49.2601544,41.8238456 C48.4923649,40.1536702 47.0226105,39.4693895 45.3151018,39.3554246 C43.5152421,39.2340912 41.7026105,39.2910737 39.8983298,39.2743719 C39.4110316,39.2689684 39.4095579,39.2758456 39.4095579,39.7616702 L39.4095579,54.1065123 C39.4095579,54.8202667 39.4095579,54.8030737 40.1380491,54.8266526 C40.4951719,54.8384421 40.5998035,54.7269333 40.5963649,54.3722667 C40.5816281,52.539986 40.5894877,50.7091789 40.5894877,48.8773895 L40.5894877,48.4274246 C41.6687158,48.4274246 42.6885053,48.4185825 43.7063298,48.4372491 C43.8183298,48.4406877 43.9534175,48.5752842 44.0344702,48.6818807 C45.5022596,50.6207579 46.9636632,52.5655298 48.4329263,54.5019509 C48.529207,54.6306526 48.680014,54.7858807 48.8185404,54.8020912 C49.1908912,54.8418807 49.571593,54.8148632 49.9483649,54.8148632 C49.9793123,54.7775298 50.0092772,54.7406877 50.0397333,54.7013895 C48.4604351,52.5896 46.8315228,50.5126877 45.2217684,48.3670035" id="Fill-12" fill="#1D758A"></path>
                            <path d="M67.4870737,47.1370175 L67.4767579,47.1370175 C67.4767579,46.1412982 67.5003368,45.1470526 67.4723368,44.152807 C67.4212491,42.3770175 66.4083368,41.016807 64.7342316,40.435193 C63.8853895,40.1409474 63.0144421,40.1060702 62.1194246,40.1984211 C59.9226526,40.428807 58.3703719,42.0316842 58.3315649,44.2186316 C58.2991439,46.1226316 58.2804772,48.0281053 58.3413895,49.9306316 C58.3939509,51.667614 59.2221614,52.9359649 60.888407,53.5838947 C61.8644772,53.9631228 62.8690386,54.0186316 63.8937404,53.8624211 C66.0870737,53.5278947 67.4350035,52.0095088 67.4856,49.7901404 C67.5042667,48.9074035 67.4870737,48.0217193 67.4870737,47.1370175 L67.4870737,47.1370175 Z M68.6625825,47.1370175 C68.6625825,48.0590526 68.6846877,48.9820702 68.6557053,49.9041053 C68.5844772,52.423614 67.1132491,54.2450877 64.6561263,54.8448772 C63.162793,55.2108421 61.6768281,55.1464912 60.250793,54.5422807 C58.2568982,53.700807 57.2420211,52.132807 57.164407,50.0107018 C57.0931789,48.0590526 57.1275649,46.1024912 57.1506526,44.1454386 C57.1796351,41.8376491 58.6862316,39.9169474 60.9321263,39.3137193 C62.6607579,38.8480351 64.3658105,38.9074737 65.9804772,39.746 C67.7086175,40.6429825 68.5255298,42.1466316 68.6409684,44.0388421 C68.7033544,45.0694386 68.6522667,46.1054386 68.6522667,47.1370175 L68.6625825,47.1370175 Z" id="Fill-14" fill="#1D758A"></path>
                            <path d="M86.6948281,44.9350877 C86.6948281,46.6312982 86.7390386,48.3299649 86.685986,50.0237193 C86.5901965,52.9597895 84.445986,54.9944561 81.4996,55.048 C80.2818456,55.0720702 79.1254947,54.8878596 78.0821263,54.2247018 C76.7749684,53.396 76.078407,52.1684211 75.8480211,50.6632982 C75.7821965,50.2403509 75.7669684,49.8075789 75.7650035,49.3777544 C75.7600912,46.1700351 75.7689333,42.9613333 75.7536733,39.7526316 C75.7517404,39.3876491 75.8396702,39.2540351 76.2218456,39.2658246 C77.0942667,39.2913684 76.9454246,39.2284912 76.9473895,40.0016842 C76.9523018,43.1106667 76.9287228,46.2221053 76.9655649,49.3320702 C76.9729333,50.0438596 77.0893544,50.7831579 77.310407,51.457614 C77.7338456,52.7480702 78.6907579,53.5055439 80.0165825,53.8002807 C81.0619158,54.0326316 82.0998807,53.9997193 83.0926526,53.6008421 C84.484793,53.0408421 85.2034596,51.9345965 85.4318807,50.4894035 C85.4942667,50.0915088 85.5094947,49.682807 85.5094947,49.2780351 C85.5163719,46.1056842 85.5129333,42.934807 85.5148982,39.7649123 C85.5148982,39.2756491 85.5148982,39.2756491 86.0085825,39.273193 C86.8166526,39.2677895 86.7238105,39.2604211 86.7238105,39.9933333 C86.7267579,41.6394386 86.7252842,43.2884912 86.7252842,44.9350877 L86.6948281,44.9350877 Z" id="Fill-16" fill="#1D758A"></path>
                            <path d="M103.134218,44.5638175 C103.058077,45.9279579 102.473025,47.011607 101.157516,47.5460632 C100.900112,47.6492211 100.626989,47.7160281 100.349937,47.7690807 C100.211411,47.7960982 100.071902,47.819186 99.9314105,47.8422737 C99.792393,47.8653614 99.6528842,47.8884491 99.5153404,47.9130105 C99.2633404,47.959186 98.9995509,47.9557474 98.7426386,47.9557474 L98.7396912,47.9557474 C97.5130947,47.9611509 96.2845333,47.9572211 95.0171649,47.9572211 L95.0171649,40.3947649 C95.0461474,40.3898526 95.0697263,40.3839579 95.0923228,40.3790456 C95.1242526,40.3726596 95.1537263,40.3667649 95.1827088,40.3677474 C96.6927439,40.3844491 98.2116211,40.3235368 99.7147789,40.4399579 C99.8724632,40.4527298 100.025235,40.4709053 100.171621,40.493993 C102.221025,40.819186 103.12734,42.1887298 103.144042,44.1374316 C103.145025,44.2764491 103.142077,44.418414 103.134218,44.5638175 M104.325446,43.8387649 C104.313656,43.6368702 104.292533,43.4349754 104.262077,43.2330807 C104.045446,41.8188351 103.39113,40.6993263 102.107551,39.9865544 C101.179621,39.4673263 100.166218,39.2978526 99.1316912,39.2811509 C97.5337263,39.2521684 95.9352702,39.2728 94.3373053,39.2742737 C94.074007,39.2742737 93.9418667,39.2747649 93.8755509,39.3415719 C93.8696561,39.3484491 93.8662175,39.3587649 93.8603228,39.3671158 C93.8504982,39.3828351 93.8406737,39.4000281 93.8337965,39.4216421 C93.8107088,39.5007298 93.8097263,39.6210807 93.8097263,39.8102035 C93.8097263,44.5544842 93.8077614,49.3002386 93.8112,54.0455018 C93.8112,54.1604491 93.8097263,54.2577123 93.8087439,54.3412211 C93.8067789,54.5077474 93.8077614,54.6163088 93.8274105,54.6865544 C93.8770246,54.8638877 94.0474807,54.8044491 94.5991298,54.8250807 C94.6762526,54.8285193 94.7401123,54.8240982 94.7921825,54.8108351 C94.8997614,54.7848 94.9557614,54.717993 94.9798316,54.6045193 C94.9911298,54.5553965 94.9970246,54.4989053 94.9970246,54.4291509 C94.9813053,52.9672561 94.9901474,51.5053614 94.9901474,50.0429754 L94.9901474,50.0405193 L94.9901474,49.0634667 L95.4396211,49.0634667 C95.9986386,49.0634667 96.5576561,49.0703439 97.1171649,49.0728 C97.6766737,49.0747649 98.2356912,49.0718175 98.7947088,49.0531509 C98.9627088,49.0482386 99.1316912,49.0403789 99.3001825,49.0300632 C99.6376561,49.0089404 99.9741474,48.9745544 100.306218,48.9224842 C100.472253,48.8959579 100.637305,48.8650105 100.800393,48.8286596 C102.489726,48.4548351 103.626919,47.4635368 104.101937,45.7968 C104.116674,45.7442386 104.136814,45.6980632 104.150568,45.6440281 C104.201165,45.4455719 104.241446,45.2461333 104.270919,45.0457123 C104.330358,44.6453614 104.348042,44.2425544 104.325446,43.8387649" id="Fill-18" fill="#1D758A"></path>
                        </g>
                    </g>
                </g>
            </g>
        </g>
    </g>
</svg>